<?xml version="1.0" encoding="UTF-8"?>
<!DOCTYPE score-partwise PUBLIC
	"-//Recordare//DTD MusicXML 1.1 Partwise//EN"
	"http://www.musicxml.org/dtds/partwise.dtd">
<score-partwise>
 <identification>
  <encoding>
   <software>OM 6.10</software>
  </encoding>
 </identification>
 <part-list>
 <score-part id="P1">
   <part-name>MusicXML Part</part-name>
   <score-instrument id="P1-I1">
    <instrument-name>Grand Piano</instrument-name>
   </score-instrument>
   <midi-instrument id="P1-I1">
    <midi-channel>1</midi-channel>
    <midi-program>1</midi-program>
   </midi-instrument>
 </score-part>
 </part-list>
<!--===================================================================-->
		<part id="P1">
		<measure number="1">
			<attributes>
				<divisions>1/4</divisions>
				<key>
				<fifths>0</fifths>
				<mode>major</mode>
				</key>
				<time>
					<beats>3</beats>
					<beat-type>4</beat-type>
				</time>
				<clef>
					<sign>g</sign>
					<line>2</line>
				</clef>
			</attributes>
			<note>
				<pitch>
					<step>F</step>
					<alter>1</alter>
					<octave>2</octave>
				</pitch>
				<duration>1/8</duration>
				<type>eighth</type>
				<accidental>sharp</accidental>
				<beam>begin</beam>
			</note>
			<note>
				<pitch>
					<step>C</step>
					<alter>0</alter>
					<octave>2</octave>
				</pitch>
				<duration>1/8</duration>
				<tie type="start"/>
				<type>eighth</type>
				<beam>end</beam>
			<notations>
				<tied type="start"/>
			</notations>
			</note>
			<note>
				<pitch>
					<step>C</step>
					<alter>0</alter>
					<octave>2</octave>
				</pitch>
				<duration>1/16</duration>
				<tie type="stop"/>
				<type>16th</type>
				<beam>begin</beam>
			<notations>
				<tied type="stop"/>
			</notations>
			</note>
			<note>
				<pitch>
					<step>E</step>
					<alter>0</alter>
					<octave>2</octave>
				</pitch>
				<duration>3/16</duration>
				<type>eighth</type>
			<dot/>
				<beam>end</beam>
			</note>
			<note>
				<pitch>
					<step>A</step>
					<alter>0</alter>
					<octave>1</octave>
				</pitch>
				<duration>1/4</duration>
				<type>quarter</type>
			</note>
		</measure>
		<!--=======================================================-->
		<measure number="2">
			<attributes>
				<divisions>1/4</divisions>
				<time>
					<beats>15</beats>
					<beat-type>16</beat-type>
				</time>
			</attributes>
			<note>
				<pitch>
					<step>A</step>
					<alter>0</alter>
					<octave>2</octave>
				</pitch>
				<duration>1/8</duration>
				<type>eighth</type>
				<beam>begin</beam>
			</note>
			<note>
				<pitch>
					<step>C</step>
					<alter>0</alter>
					<octave>2</octave>
				</pitch>
				<duration>3/16</duration>
				<type>eighth</type>
			<dot/>
			</note>
			<note>
				<pitch>
					<step>E</step>
					<alter>0</alter>
					<octave>2</octave>
				</pitch>
				<duration>1/8</duration>
				<type>eighth</type>
			</note>
			<note>
				<pitch>
					<step>F</step>
					<alter>1</alter>
					<octave>1</octave>
				</pitch>
				<duration>1/8</duration>
				<type>eighth</type>
				<accidental>sharp</accidental>
			</note>
			<note>
				<pitch>
					<step>B</step>
					<alter>0</alter>
					<octave>1</octave>
				</pitch>
				<duration>3/16</duration>
				<type>eighth</type>
			<dot/>
			</note>
			<note>
				<pitch>
					<step>F</step>
					<alter>0</alter>
					<octave>1</octave>
				</pitch>
				<duration>3/16</duration>
				<type>eighth</type>
			<dot/>
				<beam>end</beam>
			</note>
		</measure>
		<!--=======================================================-->
		<measure number="3">
			<attributes>
				<divisions>1/4</divisions>
				<time>
					<beats>9</beats>
					<beat-type>16</beat-type>
				</time>
			</attributes>
			<note>
				<pitch>
					<step>C</step>
					<alter>1</alter>
					<octave>3</octave>
				</pitch>
				<duration>1/8</duration>
				<type>eighth</type>
				<accidental>sharp</accidental>
				<beam>begin</beam>
			</note>
			<note>
				<pitch>
					<step>G</step>
					<alter>0</alter>
					<octave>2</octave>
				</pitch>
				<duration>1/8</duration>
				<type>eighth</type>
			</note>
			<note>
				<pitch>
					<step>B</step>
					<alter>0</alter>
					<octave>2</octave>
				</pitch>
				<duration>1/8</duration>
				<type>eighth</type>
			</note>
			<note>
				<pitch>
					<step>F</step>
					<alter>0</alter>
					<octave>2</octave>
				</pitch>
				<duration>3/16</duration>
				<type>eighth</type>
			<dot/>
				<beam>end</beam>
			</note>
		</measure>
		<!--=======================================================-->
		<measure number="4">
			<attributes>
				<divisions>1/4</divisions>
				<time>
					<beats>11</beats>
					<beat-type>16</beat-type>
				</time>
			</attributes>
			<note>
				<pitch>
					<step>E</step>
					<alter>0</alter>
					<octave>3</octave>
				</pitch>
				<duration>3/16</duration>
				<type>eighth</type>
			<dot/>
				<beam>begin</beam>
			</note>
			<note>
				<pitch>
					<step>G</step>
					<alter>0</alter>
					<octave>2</octave>
				</pitch>
				<duration>1/8</duration>
				<type>eighth</type>
			</note>
			<note>
				<pitch>
					<step>B</step>
					<alter>0</alter>
					<octave>2</octave>
				</pitch>
				<duration>3/16</duration>
				<type>eighth</type>
			<dot/>
			</note>
			<note>
				<pitch>
					<step>D</step>
					<alter>0</alter>
					<octave>2</octave>
				</pitch>
				<duration>3/16</duration>
				<type>eighth</type>
			<dot/>
				<beam>end</beam>
			</note>
		</measure>
		<!--=======================================================-->
		<measure number="5">
			<attributes>
				<divisions>1/4</divisions>
				<time>
					<beats>5</beats>
					<beat-type>8</beat-type>
				</time>
			</attributes>
			<note>
				<pitch>
					<step>G</step>
					<alter>0</alter>
					<octave>3</octave>
				</pitch>
				<duration>1/8</duration>
				<type>eighth</type>
				<beam>begin</beam>
			</note>
			<note>
				<pitch>
					<step>A</step>
					<alter>1</alter>
					<octave>2</octave>
				</pitch>
				<duration>1/8</duration>
				<type>eighth</type>
				<accidental>sharp</accidental>
			</note>
			<note>
				<pitch>
					<step>D</step>
					<alter>1</alter>
					<octave>3</octave>
				</pitch>
				<duration>1/8</duration>
				<tie type="start"/>
				<type>eighth</type>
				<accidental>sharp</accidental>
			<notations>
				<tied type="start"/>
			</notations>
			</note>
			<note>
				<pitch>
					<step>D</step>
					<alter>1</alter>
					<octave>3</octave>
				</pitch>
				<duration>1/16</duration>
				<tie type="stop"/>
				<type>16th</type>
				<accidental>sharp</accidental>
				<beam>begin</beam>
			<notations>
				<tied type="stop"/>
			</notations>
			</note>
			<note>
				<pitch>
					<step>F</step>
					<alter>0</alter>
					<octave>2</octave>
				</pitch>
				<duration>1/16</duration>
				<tie type="start"/>
				<type>16th</type>
				<beam>end</beam>
			<notations>
				<tied type="start"/>
			</notations>
			</note>
			<note>
				<pitch>
					<step>F</step>
					<alter>0</alter>
					<octave>2</octave>
				</pitch>
				<duration>1/8</duration>
				<tie type="stop"/>
				<type>eighth</type>
				<beam>end</beam>
			<notations>
				<tied type="stop"/>
			</notations>
			</note>
		</measure>
		<!--=======================================================-->
		<measure number="6">
			<attributes>
				<divisions>1/4</divisions>
				<time>
					<beats>4</beats>
					<beat-type>4</beat-type>
				</time>
			</attributes>
			<note>
				<pitch>
					<step>B</step>
					<alter>0</alter>
					<octave>3</octave>
				</pitch>
				<duration>3/16</duration>
				<type>eighth</type>
			<dot/>
				<beam>begin</beam>
			</note>
			<note>
				<pitch>
					<step>D</step>
					<alter>0</alter>
					<octave>3</octave>
				</pitch>
				<duration>1/16</duration>
				<tie type="start"/>
				<type>16th</type>
				<beam>end</beam>
			<notations>
				<tied type="start"/>
			</notations>
			</note>
			<note>
				<pitch>
					<step>D</step>
					<alter>0</alter>
					<octave>3</octave>
				</pitch>
				<duration>1/16</duration>
				<tie type="stop"/>
				<type>16th</type>
				<beam>begin</beam>
			<notations>
				<tied type="stop"/>
			</notations>
			</note>
			<note>
				<pitch>
					<step>A</step>
					<alter>0</alter>
					<octave>3</octave>
				</pitch>
				<duration>3/16</duration>
				<type>eighth</type>
			<dot/>
				<beam>end</beam>
			</note>
			<note>
				<pitch>
					<step>G</step>
					<alter>1</alter>
					<octave>2</octave>
				</pitch>
				<duration>1/8</duration>
				<type>eighth</type>
				<accidental>sharp</accidental>
				<beam>begin</beam>
			</note>
			<note>
				<pitch>
					<step>C</step>
					<alter>1</alter>
					<octave>3</octave>
				</pitch>
				<duration>1/8</duration>
				<tie type="start"/>
				<type>eighth</type>
				<accidental>sharp</accidental>
				<beam>end</beam>
			<notations>
				<tied type="start"/>
			</notations>
			</note>
			<note>
				<pitch>
					<step>C</step>
					<alter>1</alter>
					<octave>3</octave>
				</pitch>
				<duration>1/16</duration>
				<tie type="stop"/>
				<type>16th</type>
				<accidental>sharp</accidental>
				<beam>begin</beam>
			<notations>
				<tied type="stop"/>
			</notations>
			</note>
			<note>
				<pitch>
					<step>G</step>
					<alter>0</alter>
					<octave>2</octave>
				</pitch>
				<duration>3/16</duration>
				<type>eighth</type>
			<dot/>
				<beam>end</beam>
			</note>
		</measure>
		<!--=======================================================-->
		<measure number="7">
			<attributes>
				<divisions>1/4</divisions>
				<time>
					<beats>13</beats>
					<beat-type>16</beat-type>
				</time>
			</attributes>
			<note>
				<pitch>
					<step>D</step>
					<alter>0</alter>
					<octave>4</octave>
				</pitch>
				<duration>3/16</duration>
				<type>eighth</type>
			<dot/>
				<beam>begin</beam>
			</note>
			<note>
				<pitch>
					<step>F</step>
					<alter>1</alter>
					<octave>3</octave>
				</pitch>
				<duration>3/16</duration>
				<type>eighth</type>
			<dot/>
				<accidental>sharp</accidental>
			</note>
			<note>
				<pitch>
					<step>A</step>
					<alter>1</alter>
					<octave>3</octave>
				</pitch>
				<duration>3/16</duration>
				<type>eighth</type>
			<dot/>
				<accidental>sharp</accidental>
			</note>
			<note>
				<pitch>
					<step>E</step>
					<alter>0</alter>
					<octave>3</octave>
				</pitch>
				<duration>1/4</duration>
				<type>quarter</type>
			</note>
		</measure>
		<!--=======================================================-->
		<measure number="8">
			<attributes>
				<divisions>1/4</divisions>
				<time>
					<beats>7</beats>
					<beat-type>8</beat-type>
				</time>
			</attributes>
			<note>
				<pitch>
					<step>E</step>
					<alter>0</alter>
					<octave>4</octave>
				</pitch>
				<duration>1/8</duration>
				<type>eighth</type>
				<beam>begin</beam>
			</note>
			<note>
				<pitch>
					<step>G</step>
					<alter>1</alter>
					<octave>3</octave>
				</pitch>
				<duration>1/8</duration>
				<type>eighth</type>
				<accidental>sharp</accidental>
			</note>
			<note>
				<pitch>
					<step>C</step>
					<alter>0</alter>
					<octave>4</octave>
				</pitch>
				<duration>1/8</duration>
				<type>eighth</type>
			</note>
			<note>
				<pitch>
					<step>D</step>
					<alter>1</alter>
					<octave>3</octave>
				</pitch>
				<duration>1/8</duration>
				<tie type="start"/>
				<type>eighth</type>
				<accidental>sharp</accidental>
			<notations>
				<tied type="start"/>
			</notations>
			</note>
			<note>
				<pitch>
					<step>D</step>
					<alter>1</alter>
					<octave>3</octave>
				</pitch>
				<duration>1/16</duration>
				<tie type="stop"/>
				<type>16th</type>
				<accidental>sharp</accidental>
				<beam>begin</beam>
			<notations>
				<tied type="stop"/>
			</notations>
			</note>
			<note>
				<pitch>
					<step>G</step>
					<alter>0</alter>
					<octave>3</octave>
				</pitch>
				<duration>1/16</duration>
				<tie type="start"/>
				<type>16th</type>
				<beam>end</beam>
			<notations>
				<tied type="start"/>
			</notations>
			</note>
			<note>
				<pitch>
					<step>G</step>
					<alter>0</alter>
					<octave>3</octave>
				</pitch>
				<duration>1/16</duration>
				<tie type="stop"/>
				<type>16th</type>
				<beam>begin</beam>
			<notations>
				<tied type="stop"/>
			</notations>
			</note>
			<note>
				<pitch>
					<step>D</step>
					<alter>0</alter>
					<octave>3</octave>
				</pitch>
				<duration>1/16</duration>
				<tie type="start"/>
				<type>16th</type>
				<beam>end</beam>
			<notations>
				<tied type="start"/>
			</notations>
			</note>
			<note>
				<pitch>
					<step>D</step>
					<alter>0</alter>
					<octave>3</octave>
				</pitch>
				<duration>1/8</duration>
				<tie type="stop"/>
				<type>eighth</type>
				<beam>end</beam>
			<notations>
				<tied type="stop"/>
			</notations>
			</note>
		</measure>
		<!--=======================================================-->
		<!--=======================================================-->
</part>
</score-partwise>
